PathFileType	4	(X/Y/Z)	c:/Users/goper/Files/vsCode/490R/osim_files/C17/C17_Slow_01.trc
DataRate	CameraRate	NumFrames	NumMarkers	Units                	OrigDataRate	OrigDataStartFrame	OrigNumFrames
250.00	250.00	8	36	mm	250.0	1646	2632
                Frame#	Time	LPSIS			LASIS			LTH1			LTH2			LTH3			LTH4			LLFE			LMFE			LSH1			LSH2			LSH3			LSH4			LLMAL			LMMAL			LCAL			LMTP5			LTOE			LMTP1			RPSIS			RASIS			RTH1			RTH2			RTH3			RTH4			RLFE			RMFE			RSH1			RSH2			RSH3			RSH4			RLMAL			RMMAL			RCAL			RMTP1			RTOE			RMTP5		
		X1	Y1	Z1	X2	Y2	Z2	X3	Y3	Z3	X4	Y4	Z4	X5	Y5	Z5	X6	Y6	Z6	X7	Y7	Z7	X8	Y8	Z8	X9	Y9	Z9	X10	Y10	Z10	X11	Y11	Z11	X12	Y12	Z12	X13	Y13	Z13	X14	Y14	Z14	X15	Y15	Z15	X16	Y16	Z16	X17	Y17	Z17	X18	Y18	Z18	X19	Y19	Z19	X20	Y20	Z20	X21	Y21	Z21	X22	Y22	Z22	X23	Y23	Z23	X24	Y24	Z24	X25	Y25	Z25	X26	Y26	Z26	X27	Y27	Z27	X28	Y28	Z28	X29	Y29	Z29	X30	Y30	Z30	X31	Y31	Z31	X32	Y32	Z32	X33	Y33	Z33	X34	Y34	Z34	X35	Y35	Z35	X36	Y36	Z36

1646	6.58000	-1817.96045	1039.16431	317.63794	-1998.97278	992.44446	446.18622	-1837.99390	696.79443	457.47833	-1835.55554	654.54260	449.17798	-1897.08203	689.82300	465.84888	-1888.18677	646.27753	457.55045	-1792.22668	491.43777	422.01355	-1808.72510	493.88354	298.66110	-1611.55408	334.43939	405.09372	-1587.33850	298.38101	396.92139	-1658.57898	294.43146	406.62650	-1628.19653	264.65100	397.49078	-1516.42920	168.11835	367.68921	-1538.49243	178.33435	282.32410	-1433.01709	177.30083	317.82108	-1577.61157	49.50735	372.40665	-1630.12866	61.88642	304.53021	-1615.21277	51.03067	255.88019	-1831.00232	1033.83044	243.37886	-2023.36084	1011.15125	175.53961	-2077.96899	733.96313	130.47766	-2097.67798	693.36572	142.16934	-2131.12231	758.91260	148.00587	-2148.74512	714.83362	150.14807	-2214.06348	509.50601	184.02693	-2164.35742	510.72726	301.23154	-2192.28760	297.93631	177.85333	-2206.63086	256.82220	193.14281	-2254.10815	318.20749	194.68828	-2257.02783	270.26935	207.94623	-2238.76538	97.51581	235.34181	-2253.28662	120.20397	323.04855	-2169.00806	55.96265	276.07004	-2400.85010	79.78259	334.87701	-2413.44971	104.85970	290.51706	-2368.90723	56.36290	225.52911
1647	6.58400	-1823.40601	1039.48877	317.50439	-2004.78943	992.09888	446.55896	-1845.37390	695.72369	457.76984	-1842.89209	652.53595	448.44446	-1904.52686	689.16760	466.28964	-1895.80212	645.55139	458.17365	-1800.84509	490.34525	422.93314	-1817.54749	492.48029	299.54468	-1618.60986	335.81107	406.70154	-1593.63452	300.27106	397.97833	-1664.69885	295.37418	407.71109	-1633.97583	266.02856	398.63004	-1520.67542	170.78581	369.02747	-1543.37280	180.31558	284.28818	-1437.73206	182.26257	319.03555	-1578.70911	50.04047	372.73422	-1630.41895	62.04131	304.63922	-1615.82227	51.53711	256.01685	-1837.07349	1034.08301	243.75235	-2029.53052	1011.61749	175.85097	-2084.69604	734.80200	130.41026	-2104.54834	694.35583	142.12010	-2137.59009	760.04120	148.32278	-2150.25684	714.39124	153.56622	-2220.52222	510.00745	184.12538	-2170.28174	511.24826	301.18030	-2196.51904	298.00989	176.89507	-2210.35522	256.79517	192.23936	-2258.32178	317.90390	194.47955	-2261.38550	270.53336	207.35286	-2239.81372	97.42924	235.15323	-2254.83203	119.94238	322.94357	-2169.49512	56.53873	276.08405	-2401.76367	77.30754	334.92697	-2418.64966	103.67966	290.26321	-2369.80762	54.58006	225.50456
1648	6.58800	-1830.11670	1039.22241	318.61996	-2010.68689	991.84100	446.80753	-1852.61572	694.34009	458.02646	-1850.63220	651.30280	448.87497	-1911.98291	688.37555	466.81253	-1904.19568	644.85785	458.22922	-1809.58850	489.22852	423.93808	-1826.64648	491.04102	300.50110	-1625.59937	337.50140	407.69330	-1600.14539	302.24136	399.06439	-1671.22742	296.32605	408.91083	-1639.95349	267.40649	399.90802	-1525.20935	173.41617	370.53125	-1548.22900	182.72557	285.77264	-1442.81799	187.41409	320.36029	-1579.89929	50.56993	373.06531	-1630.93079	62.24187	304.81018	-1616.49280	52.07275	256.27829	-1843.11536	1034.36267	244.30777	-2035.67078	1012.12872	176.14035	-2091.28589	735.69360	130.34692	-2111.35742	695.21680	142.01727	-2144.07251	761.03711	148.59756	-2156.91235	715.40472	153.72997	-2226.63696	510.01538	184.17586	-2176.15332	511.91718	301.13129	-2200.53125	298.03003	176.01234	-2213.83472	256.67374	191.45448	-2262.19141	317.55807	194.18880	-2265.53589	270.71759	206.74294	-2240.93164	97.24859	235.22688	-2256.18896	119.65558	322.94424	-2170.07690	57.07101	276.11307	-2402.60718	74.86294	335.27597	-2420.04053	100.95173	290.67874	-2370.70703	52.93428	225.68080
1649	6.59200	-1835.45288	1039.60437	318.49472	-2016.50659	991.62103	447.09787	-1860.28735	693.40204	458.18652	-1858.52661	650.05060	449.37054	-1919.38464	687.58215	467.38150	-1912.11743	644.03418	458.98267	-1818.63416	488.17386	424.87524	-1836.02539	489.47821	301.44131	-1633.00476	339.16208	408.84402	-1606.98096	304.17285	400.31534	-1677.90930	297.32318	410.21558	-1646.27881	268.83380	401.22922	-1530.07141	176.10641	372.11249	-1553.49207	185.11084	287.41849	-1448.37390	192.70370	321.79916	-1581.17639	51.21550	373.53479	-1631.55420	62.48793	305.08865	-1617.46533	52.69296	256.56577	-1849.06897	1034.77991	244.79590	-2041.78125	1012.68323	176.40819	-2097.88745	736.35846	130.16824	-2118.03345	695.95929	141.83931	-2150.59717	761.93817	148.84877	-2165.88574	717.67938	151.87137	-2232.07104	510.01263	183.98230	-2181.92822	512.70612	301.20694	-2204.60059	297.99374	175.05141	-2217.16943	256.44986	190.77113	-2266.11206	317.17340	193.98647	-2269.49902	270.79642	206.28474	-2241.93066	97.18954	235.38074	-2257.34814	119.36629	323.09052	-2170.59033	57.52241	276.15762	-2403.35938	72.39068	335.81555	-2421.24097	98.31554	291.35931	-2371.58545	51.65273	225.96542
1650	6.59600	-1841.34607	1039.71313	318.94882	-2022.65527	991.58112	447.29962	-1867.96582	692.15009	458.65115	-1866.49890	648.80426	449.88934	-1927.02112	686.84454	468.01755	-1920.03210	643.25311	459.69754	-1827.80872	487.01410	425.88391	-1845.72253	487.83789	302.40115	-1640.47485	340.97192	409.51810	-1614.16895	306.25757	401.56985	-1684.92371	298.35861	411.60168	-1652.90503	270.30386	402.69641	-1535.14587	178.82907	373.81738	-1558.94446	187.58508	289.10318	-1454.20630	198.11946	323.34506	-1582.43994	51.86016	373.97070	-1631.73926	62.59899	305.58435	-1618.41418	53.45937	256.87009	-1854.88318	1035.18542	245.30412	-2047.86121	1013.27924	176.65486	-2105.73047	738.07568	129.29294	-2124.60547	696.67908	141.51378	-2157.09180	762.69989	149.06604	-2172.41797	718.42474	152.06166	-2238.00513	509.82825	184.12015	-2187.83569	513.76208	301.35934	-2208.43164	297.89993	174.30258	-2219.89746	255.94615	190.35139	-2269.84888	316.69058	193.90672	-2273.29590	270.74429	206.14650	-2242.87354	97.15176	235.74963	-2258.39648	119.10176	323.41742	-2170.95190	57.92028	276.21826	-2401.11108	68.43433	336.14798	-2422.30664	95.95953	292.20450	-2372.28516	50.71155	226.25598
1651	6.60000	-1847.23621	1039.88306	319.45502	-2028.12903	991.31866	447.42380	-1875.56555	690.87964	458.93689	-1874.51807	647.58002	450.44513	-1934.78101	686.24219	468.56418	-1928.18982	642.48822	460.42133	-1837.20837	485.81415	426.88031	-1855.65918	486.14743	303.36563	-1648.54626	342.59290	411.16785	-1621.55103	308.34848	402.86823	-1692.17249	299.41885	413.05899	-1659.72681	271.83789	404.21243	-1540.55859	181.57362	375.56400	-1564.71045	189.98268	290.98889	-1460.43176	203.70459	325.04092	-1583.93652	52.65609	374.38986	-1632.43970	62.87799	305.91306	-1619.49402	54.44291	257.26566	-1860.63342	1035.73022	245.83740	-2053.91040	1013.91492	176.88075	-2112.05054	738.60358	129.20329	-2131.08789	697.31604	141.26590	-2163.38843	763.21777	149.10431	-2181.23511	719.87170	152.33810	-2243.26660	509.62866	183.96944	-2193.40161	514.81287	301.55676	-2212.06079	297.77954	173.72394	-2227.43311	257.61560	189.15105	-2273.31689	316.17282	194.00298	-2276.87036	270.51797	206.42288	-2243.66040	97.13802	236.17213	-2259.19629	118.80709	323.82278	-2171.24414	58.26671	276.31174	-2404.37109	67.81957	337.13574	-2423.13525	93.81862	293.15665	-2373.04858	50.04636	226.51346
1652	6.60400	-1853.01965	1040.20300	319.86963	-2033.93738	991.29474	447.46872	-1883.35522	689.65912	459.05136	-1882.71167	646.26984	451.00021	-1942.50830	685.62073	469.09543	-1936.37964	641.75323	461.17056	-1846.79065	484.65106	427.88803	-1865.87549	484.35394	304.39053	-1656.72791	344.37659	412.04285	-1629.23816	310.53491	404.22528	-1699.74011	300.50275	414.57324	-1666.79065	273.39319	405.88168	-1546.29993	184.32776	377.35223	-1570.75146	192.41360	292.84442	-1467.18726	209.28899	326.74725	-1585.41663	53.56809	374.91483	-1633.47302	63.24795	306.33615	-1620.84705	55.44373	257.67032	-1866.56433	1036.17615	246.31392	-2059.92798	1014.58862	177.08626	-2118.22534	739.04028	129.09334	-2137.25781	697.81250	141.03986	-2169.66138	763.66510	149.16245	-2184.86548	719.30908	151.98390	-2248.34131	509.27164	183.95300	-2198.87646	515.96979	301.70190	-2215.47046	297.62384	173.39795	-2230.50171	257.68271	189.06340	-2276.75122	315.64478	194.36995	-2279.85742	270.00403	206.91423	-2244.31274	97.14450	236.71361	-2259.93286	118.46889	324.27582	-2171.47949	58.56742	276.41956	-2404.76758	65.90717	337.85654	-2420.93481	90.04646	294.16055	-2373.59546	49.60472	226.70677
1653	6.60800	-1859.35864	1040.22803	320.86719	-2039.77209	991.22192	447.59036	-1891.34082	688.26215	459.59976	-1890.98547	644.98688	451.56805	-1950.27039	685.02142	469.64792	-1944.61426	641.03845	461.94263	-1856.62378	483.45795	428.83975	-1876.55261	482.49698	305.41083	-1665.19336	346.11847	413.56113	-1637.11487	312.69992	405.59128	-1707.59436	301.70343	416.31219	-1674.17700	275.02365	407.55075	-1552.41492	187.06561	379.18561	-1577.17725	194.79051	294.85587	-1474.25452	215.00595	328.70645	-1587.05615	54.63504	375.40735	-1634.52576	63.64204	306.82034	-1622.31287	56.71865	258.27811	-1872.22937	1036.75037	246.77898	-2065.91357	1015.29852	177.27179	-2124.29590	739.48383	128.91614	-2143.23926	698.15881	140.82323	-2175.86646	763.98431	149.02582	-2190.93335	719.58221	151.81778	-2253.10181	508.87857	183.99985	-2204.21436	517.04913	301.93137	-2218.81934	297.46307	173.32271	-2233.32495	257.42145	189.20491	-2279.89478	315.12460	194.88661	-2281.81470	269.07147	207.34737	-2244.90576	97.18247	237.27399	-2260.58496	118.10796	324.76489	-2171.67578	58.83010	276.51645	-2405.12939	64.20354	338.52170	-2422.31567	89.13393	294.41507	-2374.11182	49.25849	226.86980
